<mxfile host="app.diagrams.net" modified="2024-06-26T14:36:25.372Z" agent="Mozilla/5.0 (Macintosh; Intel Mac OS X 10.15; rv:127.0) Gecko/20100101 Firefox/127.0" etag="5XMdqNA8xqbv7YHd3MEs" version="24.0.0" type="device">
  <diagram name="Page-1" id="_6oMUpvn5r6ykmn8X2wn">
    <mxGraphModel dx="3208" dy="2283" grid="1" gridSize="10" guides="1" tooltips="1" connect="1" arrows="1" fold="1" page="1" pageScale="1" pageWidth="1100" pageHeight="850" math="0" shadow="0">
      <root>
        <mxCell id="0" />
        <mxCell id="1" parent="0" />
        <mxCell id="sH1Ey0CYJzA4kVU5IbJd-4" value="&lt;div&gt;&lt;font style=&quot;font-size: 18px;&quot;&gt;Java JVM&lt;/font&gt;&lt;/div&gt;&lt;div&gt;&lt;font style=&quot;font-size: 18px;&quot;&gt;(8, 11, 21+)&lt;br&gt;&lt;/font&gt;&lt;/div&gt;" style="rounded=1;whiteSpace=wrap;html=1;fillColor=#d0cee2;strokeColor=#56517e;" vertex="1" parent="1">
          <mxGeometry x="220" y="255" width="440" height="65" as="geometry" />
        </mxCell>
        <mxCell id="sH1Ey0CYJzA4kVU5IbJd-5" value="&lt;font size=&quot;3&quot;&gt;OS: Linux, Windows, macOS, virtual containers&lt;/font&gt;" style="rounded=1;whiteSpace=wrap;html=1;fillColor=#1ba1e2;strokeColor=#006EAF;fontColor=#ffffff;" vertex="1" parent="1">
          <mxGeometry x="220" y="320" width="440" height="70" as="geometry" />
        </mxCell>
        <mxCell id="sH1Ey0CYJzA4kVU5IbJd-6" value="&lt;font style=&quot;font-size: 18px;&quot;&gt;jPOS&lt;/font&gt;" style="rounded=1;whiteSpace=wrap;html=1;fillColor=#e6d0de;gradientColor=#d5739d;strokeColor=#996185;" vertex="1" parent="1">
          <mxGeometry x="330" y="190" width="220" height="65" as="geometry" />
        </mxCell>
        <mxCell id="sH1Ey0CYJzA4kVU5IbJd-8" value="&lt;div&gt;&lt;font style=&quot;font-size: 18px;&quot;&gt;jPOS-EE&lt;/font&gt;&lt;/div&gt;&lt;div&gt;&lt;font size=&quot;3&quot;&gt;modules&lt;/font&gt;&lt;/div&gt;" style="rounded=1;whiteSpace=wrap;html=1;fillColor=#f8cecc;gradientColor=#ea6b66;strokeColor=#b85450;" vertex="1" parent="1">
          <mxGeometry x="220" y="190" width="110" height="65" as="geometry" />
        </mxCell>
        <mxCell id="sH1Ey0CYJzA4kVU5IbJd-9" value="other libs" style="rounded=1;whiteSpace=wrap;html=1;fillColor=#fff2cc;gradientColor=#ffd966;strokeColor=#d6b656;" vertex="1" parent="1">
          <mxGeometry x="550" y="190" width="110" height="35" as="geometry" />
        </mxCell>
        <mxCell id="sH1Ey0CYJzA4kVU5IbJd-11" value="&lt;font style=&quot;font-size: 18px;&quot;&gt;Application&lt;/font&gt;" style="rounded=1;whiteSpace=wrap;html=1;fillColor=#d5e8d4;gradientColor=#97d077;strokeColor=#82b366;" vertex="1" parent="1">
          <mxGeometry x="330" y="125" width="220" height="65" as="geometry" />
        </mxCell>
        <mxCell id="sH1Ey0CYJzA4kVU5IbJd-14" value="HTTP REST API" style="rounded=1;whiteSpace=wrap;html=1;fillColor=#d5e8d4;strokeColor=#82b366;" vertex="1" parent="1">
          <mxGeometry x="220" y="125" width="110" height="65" as="geometry" />
        </mxCell>
        <mxCell id="sH1Ey0CYJzA4kVU5IbJd-16" value="&lt;div&gt;HTTP REST CLIENT&lt;br&gt;&lt;/div&gt;" style="rounded=1;whiteSpace=wrap;html=1;fillColor=#d5e8d4;strokeColor=#82b366;" vertex="1" parent="1">
          <mxGeometry x="550" y="125" width="110" height="65" as="geometry" />
        </mxCell>
        <mxCell id="sH1Ey0CYJzA4kVU5IbJd-18" value="other libs" style="rounded=1;whiteSpace=wrap;html=1;fillColor=#fff2cc;gradientColor=#ffd966;strokeColor=#d6b656;" vertex="1" parent="1">
          <mxGeometry x="550" y="225" width="110" height="30" as="geometry" />
        </mxCell>
        <mxCell id="sH1Ey0CYJzA4kVU5IbJd-20" value="DB" style="shape=cylinder3;whiteSpace=wrap;html=1;boundedLbl=1;backgroundOutline=1;size=15;fillColor=#bac8d3;strokeColor=#23445d;" vertex="1" parent="1">
          <mxGeometry x="470" y="47.5" width="60" height="55" as="geometry" />
        </mxCell>
        <mxCell id="sH1Ey0CYJzA4kVU5IbJd-21" value="" style="endArrow=classic;html=1;rounded=0;entryX=0.5;entryY=1;entryDx=0;entryDy=0;entryPerimeter=0;exitX=0.777;exitY=0.015;exitDx=0;exitDy=0;exitPerimeter=0;" edge="1" parent="1" source="sH1Ey0CYJzA4kVU5IbJd-11" target="sH1Ey0CYJzA4kVU5IbJd-20">
          <mxGeometry width="50" height="50" relative="1" as="geometry">
            <mxPoint x="500" y="120" as="sourcePoint" />
            <mxPoint x="540" y="315" as="targetPoint" />
          </mxGeometry>
        </mxCell>
        <mxCell id="sH1Ey0CYJzA4kVU5IbJd-52" value="" style="shape=mxgraph.rack.cisco.cisco_wae-7371;html=1;labelPosition=right;align=left;spacingLeft=15;dashed=0;shadow=0;fillColor=#ffffff;" vertex="1" parent="1">
          <mxGeometry x="300" y="60" width="120" height="20" as="geometry" />
        </mxCell>
        <mxCell id="sH1Ey0CYJzA4kVU5IbJd-54" value="HSM" style="text;html=1;align=center;verticalAlign=middle;resizable=0;points=[];autosize=1;strokeColor=none;fillColor=none;" vertex="1" parent="1">
          <mxGeometry x="250" y="55" width="50" height="30" as="geometry" />
        </mxCell>
        <mxCell id="sH1Ey0CYJzA4kVU5IbJd-55" value="" style="endArrow=classic;html=1;rounded=0;entryX=0.488;entryY=0.948;entryDx=0;entryDy=0;entryPerimeter=0;exitX=0.127;exitY=0.015;exitDx=0;exitDy=0;exitPerimeter=0;" edge="1" parent="1" source="sH1Ey0CYJzA4kVU5IbJd-11" target="sH1Ey0CYJzA4kVU5IbJd-52">
          <mxGeometry width="50" height="50" relative="1" as="geometry">
            <mxPoint x="350" y="120" as="sourcePoint" />
            <mxPoint x="430" y="275" as="targetPoint" />
          </mxGeometry>
        </mxCell>
        <mxCell id="sH1Ey0CYJzA4kVU5IbJd-63" value="" style="rounded=0;whiteSpace=wrap;html=1;" vertex="1" parent="1">
          <mxGeometry x="-650" y="-430" width="120" height="60" as="geometry" />
        </mxCell>
        <mxCell id="sH1Ey0CYJzA4kVU5IbJd-66" value="" style="group" vertex="1" connectable="0" parent="1">
          <mxGeometry x="130" y="125" width="80" height="265" as="geometry" />
        </mxCell>
        <mxCell id="sH1Ey0CYJzA4kVU5IbJd-60" value="&lt;div&gt;web admin&lt;/div&gt;&lt;div&gt;UI&lt;br&gt;&lt;/div&gt;" style="rounded=1;whiteSpace=wrap;html=1;fillColor=#eeeeee;strokeColor=#36393d;" vertex="1" parent="sH1Ey0CYJzA4kVU5IbJd-66">
          <mxGeometry width="80" height="65" as="geometry" />
        </mxCell>
        <mxCell id="sH1Ey0CYJzA4kVU5IbJd-61" value="Customer portals" style="rounded=1;whiteSpace=wrap;html=1;fillColor=#eeeeee;strokeColor=#36393d;" vertex="1" parent="sH1Ey0CYJzA4kVU5IbJd-66">
          <mxGeometry y="65" width="80" height="65" as="geometry" />
        </mxCell>
        <mxCell id="sH1Ey0CYJzA4kVU5IbJd-64" value="Mobile apps" style="rounded=1;whiteSpace=wrap;html=1;fillColor=#eeeeee;strokeColor=#36393d;" vertex="1" parent="sH1Ey0CYJzA4kVU5IbJd-66">
          <mxGeometry y="130" width="80" height="65" as="geometry" />
        </mxCell>
        <mxCell id="sH1Ey0CYJzA4kVU5IbJd-65" value="&lt;div&gt;Monitoring&lt;/div&gt;&lt;div&gt;&amp;nbsp;clients&lt;/div&gt;" style="rounded=1;whiteSpace=wrap;html=1;fillColor=#eeeeee;strokeColor=#36393d;" vertex="1" parent="sH1Ey0CYJzA4kVU5IbJd-66">
          <mxGeometry y="195" width="80" height="70" as="geometry" />
        </mxCell>
        <mxCell id="sH1Ey0CYJzA4kVU5IbJd-73" value="&lt;div align=&quot;left&quot;&gt;&lt;font style=&quot;font-size: 9px;&quot;&gt;system config&lt;/font&gt;&lt;/div&gt;&lt;div align=&quot;left&quot;&gt;&lt;font style=&quot;font-size: 9px;&quot;&gt;transaction log&lt;/font&gt;&lt;/div&gt;&lt;div align=&quot;left&quot;&gt;&lt;font style=&quot;font-size: 9px;&quot;&gt;business entity data&lt;/font&gt;&lt;/div&gt;&lt;div align=&quot;left&quot;&gt;&lt;font style=&quot;font-size: 9px;&quot;&gt;auditing logs&lt;br&gt;&lt;/font&gt;&lt;/div&gt;" style="text;html=1;align=left;verticalAlign=middle;resizable=0;points=[];autosize=1;strokeColor=none;fillColor=none;" vertex="1" parent="1">
          <mxGeometry x="530" y="40" width="100" height="70" as="geometry" />
        </mxCell>
        <mxCell id="sH1Ey0CYJzA4kVU5IbJd-69" value="&lt;div&gt;External&lt;/div&gt;&lt;div&gt;&amp;nbsp;APIs&lt;/div&gt;" style="rounded=1;whiteSpace=wrap;html=1;fillColor=#eeeeee;strokeColor=#36393d;movable=1;resizable=1;rotatable=1;deletable=1;editable=1;locked=0;connectable=1;" vertex="1" parent="1">
          <mxGeometry x="670" y="125" width="80" height="75" as="geometry" />
        </mxCell>
        <mxCell id="sH1Ey0CYJzA4kVU5IbJd-70" value="Reporting " style="rounded=1;whiteSpace=wrap;html=1;fillColor=#eeeeee;strokeColor=#36393d;" vertex="1" parent="1">
          <mxGeometry x="670" y="200" width="80" height="80" as="geometry" />
        </mxCell>
        <mxCell id="sH1Ey0CYJzA4kVU5IbJd-71" value="&lt;div&gt;Logging&lt;/div&gt;&lt;div&gt;and&lt;/div&gt;&lt;div&gt;monitoring&lt;br&gt;&lt;/div&gt;" style="rounded=1;whiteSpace=wrap;html=1;fillColor=#eeeeee;strokeColor=#36393d;" vertex="1" parent="1">
          <mxGeometry x="670" y="280" width="80" height="110" as="geometry" />
        </mxCell>
      </root>
    </mxGraphModel>
  </diagram>
</mxfile>
